<svg xmlns="http://www.w3.org/2000/svg" xmlns:xlink="http://www.w3.org/1999/xlink" id="Camada_1"
    x="0px" y="0px" viewBox="0 0 243.7 156.1" style="enable-background:new 0 0 243.7 156.1;"
    xml:space="preserve"><style type="text/css">	.st0{fill:#FFFFFF;}	.st1{fill:#0080C8;}</style><ellipse class="st0" cx="121.8" cy="36.1" rx="24.5" ry="24.3"></ellipse><title>Logo-Altave-branco</title><g id="Camada_2_1_">	<g id="Camada_1-2">		<path class="st0" d="M148.4,9.4c-0.6-0.6-1.3-1.3-2-1.9c0.5-5.2,4.7-7.6,9.1-7.5h58.9l-6,7.7c-1.2,1.4-3,2.2-4.9,2.2h-41.1    c-1.4-0.1-2.6,1-2.6,2.4c0,0.1,0,0.2,0,0.3h44.8l-5.9,7.6c-1.2,1.4-3,2.3-4.9,2.3h-29c-1.4-0.1-2.6,1-2.6,2.4c0,0.1,0,0.2,0,0.3    h32.6l-6,7.7c-1.2,1.5-3.1,2.3-5,2.2h-16.3c-4.6,0-2.9,2.4-4.9,6.1l-3.9,1.1C161,30.4,157.1,18,148.4,9.4L148.4,9.4z"></path>		<path class="st1" d="M156.3,36c0-19-15.4-34.5-34.5-34.5c-19,0-34.5,15.4-34.5,34.5c0,19,15.4,34.5,34.5,34.5    c9.1,0,17.9-3.6,24.4-10.1C152.7,53.9,156.3,45.1,156.3,36z M145,36c0,12.8-10.4,23.2-23.2,23.2S98.7,48.8,98.7,36    s10.4-23.2,23.2-23.2c6.1,0,12,2.4,16.4,6.8C142.6,24,145,29.9,145,36z M141.5,36c0-10.8-8.7-19.6-19.6-19.7c-2,0-4,0.3-5.9,0.9    c1.9,1.3,2.3,3.9,0.9,5.8s-3.9,2.3-5.8,0.9c-1-0.7-1.6-1.9-1.7-3.2c-8.4,6.9-9.7,19.2-2.8,27.6c6.9,8.4,19.2,9.7,27.6,2.8    C138.9,47.5,141.5,41.9,141.5,36L141.5,36z M131.1,36c0,5.1-4.2,9.3-9.3,9.3c-5.1,0-9.3-4.2-9.3-9.3c0-5.1,4.2-9.3,9.3-9.3    c0,0,0,0,0,0C127,26.7,131.1,30.9,131.1,36L131.1,36z"></path>		<path class="st0" d="M95.3,9.4c0.7-0.6,1.3-1.3,2-1.9c-0.5-5.2-4.7-7.6-9.1-7.5H29.3l6,7.7c1.2,1.4,3,2.2,4.9,2.2h41.1    c1.4-0.1,2.6,1,2.6,2.4c0,0.1,0,0.2,0,0.3H39.1l5.9,7.6c1.2,1.4,3,2.3,4.9,2.3h29c1.4-0.1,2.6,1,2.6,2.4c0,0.1,0,0.2,0,0.3H48.9    l5.9,7.7c1.2,1.5,3.1,2.3,5,2.2h16.3c4.6,0,2.9,2.4,4.9,6.1l3.9,1.1C82.7,30.4,86.6,18,95.3,9.4L95.3,9.4z"></path>		<path class="st0" d="M226.6,120.9v-7.1h15.3v-10.4h-15.3v-6.8h16.6V86.1h-28.4v45.5h29v-10.7H226.6z M194.6,86.1l-5.7,13.5    l-4,12.3l-4.2-12.3l-5.8-13.5h-12.7v0.7l20.1,45.2h5.2l19.9-45.2v-0.7L194.6,86.1z M142.9,104.4l4.1,11.1h-8.4L142.9,104.4    L142.9,104.4z M145.5,85.6h-5.2L119,130.9v0.6h12.8l2.5-5.8h17.1l2.6,5.8h12.8v-0.6L145.5,85.6L145.5,85.6z M119.3,86.1H85.5v10.7    h11v34.8h11.9V96.8h11L119.3,86.1L119.3,86.1z M66.6,120.9V86.1H54.7v45.5H83v-10.7H66.6z M24,104.4l4.1,11.1h-8.4L24,104.4z     M26.6,85.6h-5.2L0,130.9v0.6h12.8l2.5-5.8h17.1l2.6,5.8h12.8v-0.6L26.6,85.6L26.6,85.6z"></path>		<path class="st0" d="M0,146.1v9.9h2.6v-9.9H0z M13.5,146.1v3.1v1.8l-5-4.9h-1v9.9H10v-3.2v-1.8l5,5h1V146L13.5,146.1z M27.5,146.1    h-7.4v2.3h2.4v7.6h2.6v-7.6h2.4L27.5,146.1L27.5,146.1z M34.2,153.6v-1.5h3.3v-2.3h-3.3v-1.5h3.6v-2.3h-6.1v9.9h6.3v-2.3H34.2z     M45.1,153.6v-7.6h-2.6v9.9h6.1v-2.3H45.1z M55.3,153.6v-7.6h-2.6v9.9h6.1v-2.3H55.3z M63,146.1v9.9h2.6v-9.9H63z M79.9,150.2H75    v2.1h2.2c-0.2,0.4-0.5,0.7-0.8,0.9c-1,0.6-2.3,0.4-3.1-0.4c-0.5-0.5-0.7-1.2-0.7-1.9c0-0.7,0.2-1.4,0.7-1.9    c0.5-0.5,1.1-0.8,1.8-0.7c0.4,0,0.8,0.1,1.2,0.2c0.3,0.2,0.6,0.4,0.8,0.7h2.7c-0.2-1-0.8-1.9-1.7-2.5c-0.9-0.6-1.9-0.9-3-0.9    c-0.9,0-1.8,0.2-2.6,0.6c-0.7,0.4-1.4,1-1.8,1.8c-0.8,1.7-0.8,3.6,0,5.3c0.4,0.8,1,1.4,1.8,1.8c0.8,0.4,1.7,0.7,2.6,0.6    c0.9,0,1.8-0.2,2.6-0.6c0.7-0.4,1.3-1,1.7-1.8c0.4-0.8,0.6-1.7,0.6-2.6C79.9,150.9,79.9,150.6,79.9,150.2L79.9,150.2z M86.9,153.6    v-1.5h3.3v-2.3h-3.4v-1.5h3.6V146h-6.2v9.9h6.3v-2.3L86.9,153.6z M101.2,146v3.1v1.8l-5-4.9h-1v9.9h2.5v-3.2v-1.8l5,5h1V146    L101.2,146z M115.2,146h-7.3v2.3h2.4v7.6h2.6v-7.6h2.4C115.2,148.4,115.2,146,115.2,146z M134.4,146l-4,4.3l-4.2-4.3h-1v9.9h2.6    v-2.7V151l2.5,2.5h0.2l2.5-2.5l-0.1,2.2v2.7h2.6V146L134.4,146z M145.1,156c0.9,0,1.9-0.2,2.7-0.6c0.8-0.4,1.4-1,1.8-1.8    c0.9-1.6,0.9-3.6,0-5.3c-0.4-0.8-1.1-1.4-1.8-1.8c-1.7-0.9-3.7-0.9-5.3,0c-0.8,0.4-1.4,1-1.8,1.8c-0.9,1.6-0.9,3.6,0,5.3    c0.4,0.8,1.1,1.4,1.8,1.8C143.2,155.8,144.1,156.1,145.1,156z M145.1,153.6c-0.7,0-1.4-0.2-1.8-0.7c-0.9-1.1-0.9-2.7,0-3.8    c0.5-0.5,1.2-0.7,1.8-0.7c0.7,0,1.4,0.2,1.8,0.7c0.9,1.1,0.9,2.7,0,3.8C146.4,153.4,145.8,153.6,145.1,153.6L145.1,153.6z     M160.6,146v3.1v1.8l-5-4.9h-1v9.9h2.5v-3.2v-1.8l5,5h1V146L160.6,146z M168.1,146v9.9h2.6V146H168.1z M182.1,146h-7.4v2.3h2.4    v7.6h2.6v-7.6h2.3L182.1,146L182.1,146z M190.7,156c0.9,0,1.8-0.2,2.7-0.6c0.8-0.4,1.4-1,1.8-1.8c0.9-1.6,0.9-3.6,0-5.3    c-0.4-0.8-1.1-1.4-1.8-1.8c-0.8-0.4-1.7-0.7-2.7-0.6c-0.9,0-1.9,0.2-2.7,0.6c-0.8,0.4-1.4,1-1.8,1.8c-0.9,1.6-0.9,3.6,0,5.3    c0.4,0.8,1.1,1.4,1.8,1.8C188.8,155.8,189.8,156,190.7,156z M190.7,153.6c-0.7,0-1.4-0.2-1.8-0.7c-0.9-1.1-0.9-2.7,0-3.8    c0.5-0.5,1.2-0.8,1.8-0.7c0.7,0,1.4,0.2,1.8,0.7c0.9,1.1,0.9,2.7,0,3.8C192.1,153.3,191.4,153.6,190.7,153.6L190.7,153.6z     M206.6,152.3c1-0.6,1.6-1.6,1.6-2.8c0-0.6-0.2-1.3-0.5-1.8c-0.3-0.5-0.8-1-1.3-1.2c-0.6-0.3-1.3-0.5-2-0.4h-4.2v9.9h2.6v-3h1.4    l1.7,3h2.9v-0.1L206.6,152.3L206.6,152.3z M202.9,148.3h1.5c0.3,0,0.7,0.1,0.9,0.3c0.2,0.2,0.4,0.6,0.3,0.9c0,0.3-0.1,0.6-0.3,0.9    c-0.3,0.2-0.6,0.3-0.9,0.3h-1.5V148.3L202.9,148.3z M213,146v9.9h2.6V146H213z M226.5,146v3.1v1.8l-5-4.9h-1v9.9h2.5v-3.2v-1.8    l5,5h1V146L226.5,146z M243.3,150.2h-4.9v2.1h2.2c-0.2,0.4-0.4,0.7-0.8,0.9c-0.4,0.2-0.9,0.4-1.3,0.4c-0.7,0-1.3-0.2-1.8-0.7    c-0.5-0.5-0.7-1.2-0.7-1.9c0-0.7,0.2-1.4,0.7-1.9c0.4-0.5,1.1-0.8,1.8-0.7c0.4,0,0.8,0.1,1.2,0.2c0.3,0.2,0.6,0.4,0.8,0.7h2.7    c-0.2-1-0.8-1.9-1.7-2.5c-1.7-1.1-3.8-1.2-5.6-0.2c-0.7,0.4-1.4,1-1.8,1.8c-0.9,1.7-0.9,3.6,0,5.3c0.4,0.8,1,1.4,1.8,1.8    c0.8,0.4,1.7,0.7,2.6,0.6c0.9,0,1.8-0.2,2.6-0.6c0.7-0.4,1.3-1,1.7-1.8c0.4-0.8,0.6-1.7,0.6-2.6    C243.3,150.9,243.3,150.6,243.3,150.2L243.3,150.2z"></path></g></g></svg>