<svg width="19" height="22" viewBox="0 0 19 22" fill="none" xmlns="http://www.w3.org/2000/svg">
    <path d="M9.50025 21.9167C8.21552 21.9167 7.00441 21.6691 5.86691 21.174C4.72941 20.6788 3.73566 20.0063 2.88566 19.1563C2.03497 18.3056 1.36205 17.3115 0.866912 16.174C0.371773 15.0365 0.124551 13.8257 0.125246 12.5417H2.20858C2.20858 14.5556 2.92038 16.2743 4.344 17.6979C5.76761 19.1215 7.48636 19.8334 9.50025 19.8334C11.5141 19.8334 13.2329 19.1215 14.6565 17.6979C16.0801 16.2743 16.7919 14.5556 16.7919 12.5417H18.8752C18.8752 13.8264 18.6277 15.0375 18.1325 16.175C17.6374 17.3125 16.9648 18.3063 16.1148 19.1563C15.2641 20.007 14.27 20.6799 13.1325 21.175C11.995 21.6702 10.7843 21.9174 9.50025 21.9167ZM0.125246 12.5417C0.125246 11.257 0.372815 10.0459 0.867954 8.90835C1.36309 7.77085 2.03566 6.7771 2.88566 5.9271C3.73636 5.07641 4.73045 4.40349 5.86795 3.90835C7.00545 3.41321 8.21622 3.16599 9.50025 3.16669C10.5766 3.16669 11.6096 3.3403 12.5992 3.68752C13.5888 4.03474 14.5176 4.53821 15.3857 5.19794L16.844 3.7396L18.3023 5.19794L16.844 6.65627C17.5037 7.52433 18.0072 8.45315 18.3544 9.44273C18.7016 10.4323 18.8752 11.4653 18.8752 12.5417H16.7919C16.7919 10.5278 16.0801 8.80905 14.6565 7.38544C13.2329 5.96183 11.5141 5.25002 9.50025 5.25002C7.48636 5.25002 5.76761 5.96183 4.344 7.38544C2.92038 8.80905 2.20858 10.5278 2.20858 12.5417H0.125246ZM6.37525 2.12502V0.041687H12.6252V2.12502H6.37525ZM9.50025 5.25002C7.65997 5.25002 6.06275 5.84898 4.70858 7.0469C3.35441 8.24481 2.54712 9.72919 2.2867 11.5H5.98462L7.33879 14L11.5836 6.5521L14.2919 11.5H16.7138C16.4534 9.72919 15.6461 8.24481 14.2919 7.0469C12.9377 5.84898 11.3405 5.25002 9.50025 5.25002ZM9.50025 19.8334C11.3405 19.8334 12.9377 19.2344 14.2919 18.0365C15.6461 16.8386 16.4534 15.3542 16.7138 13.5834H13.0159L11.6617 11.0834L7.41691 18.5313L4.70858 13.5834H2.2867C2.54712 15.3542 3.35441 16.8386 4.70858 18.0365C6.06275 19.2344 7.65997 19.8334 9.50025 19.8334ZM9.50025 19.8334C7.48636 19.8334 5.76761 19.1215 4.344 17.6979C2.92038 16.2743 2.20858 14.5556 2.20858 12.5417C2.20858 10.5278 2.92038 8.80905 4.344 7.38544C5.76761 5.96183 7.48636 5.25002 9.50025 5.25002C11.5141 5.25002 13.2329 5.96183 14.6565 7.38544C16.0801 8.80905 16.7919 10.5278 16.7919 12.5417C16.7919 14.5556 16.0801 16.2743 14.6565 17.6979C13.2329 19.1215 11.5141 19.8334 9.50025 19.8334Z" fill="#0C6834"/>
    </svg>
    