<svg width="209" height="37" viewBox="0 0 209 37" fill="none" xmlns="http://www.w3.org/2000/svg">
<path d="M14.1848 19.7746L8.96752 34H5.50289L0.285566 19.7746H3.34259L7.25558 31.0856L11.1482 19.7746H14.1848ZM20.909 34.1834C19.8221 34.1834 18.8438 33.9457 17.9743 33.4701C17.1047 32.981 16.4186 32.2949 15.9159 31.4117C15.4268 30.5286 15.1822 29.5096 15.1822 28.3547C15.1822 27.1998 15.4335 26.1808 15.9363 25.2977C16.4526 24.4145 17.1523 23.7352 18.0354 23.2597C18.9186 22.7705 19.9036 22.526 20.9905 22.526C22.0775 22.526 23.0625 22.7705 23.9457 23.2597C24.8288 23.7352 25.5217 24.4145 26.0244 25.2977C26.5407 26.1808 26.7989 27.1998 26.7989 28.3547C26.7989 29.5096 26.5339 30.5286 26.0041 31.4117C25.4878 32.2949 24.7813 32.981 23.8845 33.4701C23.0014 33.9457 22.0095 34.1834 20.909 34.1834ZM20.909 31.697C21.4253 31.697 21.9076 31.5748 22.356 31.3302C22.818 31.072 23.1848 30.6916 23.4565 30.1889C23.7283 29.6862 23.8641 29.0748 23.8641 28.3547C23.8641 27.2813 23.5788 26.4593 23.0082 25.8887C22.4511 25.3045 21.765 25.0123 20.9498 25.0123C20.1346 25.0123 19.4484 25.3045 18.8914 25.8887C18.3479 26.4593 18.0762 27.2813 18.0762 28.3547C18.0762 29.428 18.3411 30.2568 18.871 30.8411C19.4145 31.4117 20.0938 31.697 20.909 31.697ZM31.7451 24.4621C32.1119 23.8643 32.5874 23.3955 33.1717 23.0559C33.7695 22.7162 34.4488 22.5463 35.2097 22.5463V25.5422H34.4556C33.5589 25.5422 32.8796 25.7528 32.4176 26.174C31.9692 26.5952 31.7451 27.3289 31.7451 28.3751V34H28.8918V22.7094H31.7451V24.4621ZM40.4534 25.0531V30.515C40.4534 30.8954 40.5418 31.174 40.7184 31.3506C40.9086 31.5136 41.2211 31.5951 41.6559 31.5951H42.9806V34H41.1871C38.7823 34 37.5798 32.8315 37.5798 30.4946V25.0531H36.2347V22.7094H37.5798V19.9173H40.4534V22.7094H42.9806V25.0531H40.4534ZM55.5286 28.1101C55.5286 28.5177 55.5014 28.8846 55.447 29.2107H47.1931C47.261 30.0259 47.5463 30.6644 48.049 31.1264C48.5517 31.5883 49.1699 31.8193 49.9036 31.8193C50.9634 31.8193 51.7175 31.3642 52.1658 30.4539H55.2432C54.9171 31.5408 54.2922 32.4375 53.3683 33.144C52.4444 33.837 51.3099 34.1834 49.9648 34.1834C48.8778 34.1834 47.8996 33.9457 47.03 33.4701C46.1741 32.981 45.5015 32.2949 45.0124 31.4117C44.5368 30.5286 44.2991 29.5096 44.2991 28.3547C44.2991 27.1862 44.5368 26.1604 45.0124 25.2773C45.4879 24.3941 46.1537 23.7148 47.0096 23.2393C47.8656 22.7637 48.8506 22.526 49.9648 22.526C51.0381 22.526 51.996 22.7569 52.8384 23.2189C53.6943 23.6808 54.3533 24.3398 54.8152 25.1958C55.2908 26.0381 55.5286 27.0096 55.5286 28.1101ZM52.5734 27.2949C52.5598 26.5612 52.2949 25.977 51.7786 25.5422C51.2623 25.0939 50.6305 24.8697 49.8832 24.8697C49.1767 24.8697 48.5789 25.0871 48.0898 25.5219C47.6143 25.943 47.3221 26.5341 47.2134 27.2949H52.5734ZM64.2958 34L60.4644 29.1903V34H57.6111V18.9187H60.4644V27.4987L64.2551 22.7094H67.9643L62.9915 28.3751L68.005 34H64.2958ZM79.3418 19.7746C80.8364 19.7746 82.1475 20.0668 83.2752 20.651C84.4165 21.2352 85.2928 22.0708 85.9042 23.1578C86.5292 24.2311 86.8417 25.4811 86.8417 26.9077C86.8417 28.3343 86.5292 29.5843 85.9042 30.6577C85.2928 31.7174 84.4165 32.5394 83.2752 33.1237C82.1475 33.7079 80.8364 34 79.3418 34H74.3691V19.7746H79.3418ZM79.2399 31.5748C80.7345 31.5748 81.8893 31.1672 82.7045 30.352C83.5198 29.5367 83.9274 28.3887 83.9274 26.9077C83.9274 25.4267 83.5198 24.2719 82.7045 23.4431C81.8893 22.6007 80.7345 22.1795 79.2399 22.1795H77.2223V31.5748H79.2399ZM88.2438 28.3139C88.2438 27.1726 88.468 26.1604 88.9164 25.2773C89.3783 24.3941 89.9965 23.7148 90.771 23.2393C91.559 22.7637 92.4353 22.526 93.4 22.526C94.2424 22.526 94.9761 22.6958 95.6011 23.0355C96.2396 23.3751 96.7491 23.8031 97.1296 24.3194V22.7094H100.003V34H97.1296V32.3492C96.7627 32.8791 96.2532 33.3207 95.6011 33.6739C94.9625 34.0136 94.222 34.1834 93.3796 34.1834C92.4285 34.1834 91.559 33.9389 90.771 33.4497C89.9965 32.9606 89.3783 32.2745 88.9164 31.3913C88.468 30.4946 88.2438 29.4688 88.2438 28.3139ZM97.1296 28.3547C97.1296 27.6618 96.9937 27.0707 96.722 26.5816C96.4502 26.0789 96.0834 25.6985 95.6214 25.4403C95.1595 25.1686 94.6636 25.0327 94.1337 25.0327C93.6038 25.0327 93.1147 25.1618 92.6663 25.4199C92.2179 25.6781 91.8511 26.0585 91.5658 26.5612C91.294 27.0504 91.1582 27.6346 91.1582 28.3139C91.1582 28.9933 91.294 29.5911 91.5658 30.1074C91.8511 30.6101 92.2179 30.9973 92.6663 31.2691C93.1283 31.5408 93.6174 31.6767 94.1337 31.6767C94.6636 31.6767 95.1595 31.5476 95.6214 31.2894C96.0834 31.0177 96.4502 30.6373 96.722 30.1481C96.9937 29.6454 97.1296 29.0476 97.1296 28.3547ZM107.11 34.1834C106.187 34.1834 105.358 34.0204 104.624 33.6943C103.89 33.3546 103.306 32.8995 102.871 32.3288C102.45 31.7582 102.219 31.1264 102.178 30.4335H105.052C105.106 30.8682 105.317 31.2283 105.684 31.5136C106.064 31.7989 106.533 31.9416 107.09 31.9416C107.634 31.9416 108.055 31.8329 108.354 31.6155C108.666 31.3981 108.822 31.1196 108.822 30.7799C108.822 30.4131 108.632 30.1414 108.252 29.9647C107.885 29.7745 107.294 29.5707 106.479 29.3533C105.636 29.1495 104.943 28.9389 104.4 28.7215C103.87 28.5041 103.408 28.1713 103.014 27.7229C102.634 27.2745 102.443 26.6699 102.443 25.9091C102.443 25.2841 102.62 24.7134 102.973 24.1971C103.34 23.6808 103.856 23.2732 104.522 22.9743C105.201 22.6754 105.996 22.526 106.907 22.526C108.252 22.526 109.325 22.8656 110.127 23.545C110.928 24.2107 111.37 25.1142 111.451 26.2555H108.72C108.68 25.8072 108.489 25.4539 108.15 25.1958C107.824 24.924 107.382 24.7882 106.825 24.7882C106.309 24.7882 105.908 24.8833 105.623 25.0735C105.351 25.2637 105.215 25.5286 105.215 25.8683C105.215 26.2487 105.405 26.5409 105.786 26.7447C106.166 26.9349 106.757 27.1319 107.559 27.3357C108.374 27.5395 109.047 27.7501 109.576 27.9675C110.106 28.1849 110.561 28.5245 110.942 28.9865C111.336 29.4348 111.54 30.0327 111.553 30.7799C111.553 31.4321 111.37 32.0163 111.003 32.5326C110.65 33.0489 110.133 33.4565 109.454 33.7554C108.788 34.0408 108.007 34.1834 107.11 34.1834ZM120.254 22.5463C121.11 22.5463 121.871 22.7366 122.537 23.117C123.202 23.4838 123.719 24.0341 124.086 24.7678C124.466 25.4879 124.656 26.3574 124.656 27.3764V34H121.803V27.7637C121.803 26.8669 121.579 26.1808 121.13 25.7053C120.682 25.2161 120.071 24.9716 119.296 24.9716C118.508 24.9716 117.883 25.2161 117.421 25.7053C116.973 26.1808 116.749 26.8669 116.749 27.7637V34H113.895V18.9187H116.749V24.1156C117.116 23.6265 117.605 23.2461 118.216 22.9743C118.827 22.689 119.507 22.5463 120.254 22.5463ZM130.223 24.3602C130.589 23.8167 131.092 23.3751 131.731 23.0355C132.383 22.6958 133.123 22.526 133.952 22.526C134.917 22.526 135.786 22.7637 136.561 23.2393C137.349 23.7148 137.967 24.3941 138.415 25.2773C138.877 26.1468 139.108 27.1591 139.108 28.3139C139.108 29.4688 138.877 30.4946 138.415 31.3913C137.967 32.2745 137.349 32.9606 136.561 33.4497C135.786 33.9389 134.917 34.1834 133.952 34.1834C133.11 34.1834 132.369 34.0204 131.731 33.6943C131.106 33.3546 130.603 32.9199 130.223 32.39V34H127.369V18.9187H130.223V24.3602ZM136.194 28.3139C136.194 27.6346 136.051 27.0504 135.766 26.5612C135.494 26.0585 135.127 25.6781 134.666 25.4199C134.217 25.1618 133.728 25.0327 133.198 25.0327C132.682 25.0327 132.193 25.1686 131.731 25.4403C131.282 25.6985 130.916 26.0789 130.63 26.5816C130.359 27.0843 130.223 27.6754 130.223 28.3547C130.223 29.034 130.359 29.6251 130.63 30.1278C130.916 30.6305 131.282 31.0177 131.731 31.2894C132.193 31.5476 132.682 31.6767 133.198 31.6767C133.728 31.6767 134.217 31.5408 134.666 31.2691C135.127 30.9973 135.494 30.6101 135.766 30.1074C136.051 29.6047 136.194 29.0069 136.194 28.3139ZM146.195 34.1834C145.108 34.1834 144.13 33.9457 143.261 33.4701C142.391 32.981 141.705 32.2949 141.202 31.4117C140.713 30.5286 140.468 29.5096 140.468 28.3547C140.468 27.1998 140.72 26.1808 141.223 25.2977C141.739 24.4145 142.439 23.7352 143.322 23.2597C144.205 22.7705 145.19 22.526 146.277 22.526C147.364 22.526 148.349 22.7705 149.232 23.2597C150.115 23.7352 150.808 24.4145 151.311 25.2977C151.827 26.1808 152.085 27.1998 152.085 28.3547C152.085 29.5096 151.82 30.5286 151.29 31.4117C150.774 32.2949 150.068 32.981 149.171 33.4701C148.288 33.9457 147.296 34.1834 146.195 34.1834ZM146.195 31.697C146.712 31.697 147.194 31.5748 147.642 31.3302C148.104 31.072 148.471 30.6916 148.743 30.1889C149.015 29.6862 149.15 29.0748 149.15 28.3547C149.15 27.2813 148.865 26.4593 148.294 25.8887C147.737 25.3045 147.051 25.0123 146.236 25.0123C145.421 25.0123 144.735 25.3045 144.178 25.8887C143.634 26.4593 143.362 27.2813 143.362 28.3547C143.362 29.428 143.627 30.2568 144.157 30.8411C144.701 31.4117 145.38 31.697 146.195 31.697ZM153.444 28.3139C153.444 27.1726 153.669 26.1604 154.117 25.2773C154.579 24.3941 155.197 23.7148 155.972 23.2393C156.76 22.7637 157.636 22.526 158.601 22.526C159.443 22.526 160.177 22.6958 160.802 23.0355C161.44 23.3751 161.95 23.8031 162.33 24.3194V22.7094H165.204V34H162.33V32.3492C161.963 32.8791 161.454 33.3207 160.802 33.6739C160.163 34.0136 159.423 34.1834 158.58 34.1834C157.629 34.1834 156.76 33.9389 155.972 33.4497C155.197 32.9606 154.579 32.2745 154.117 31.3913C153.669 30.4946 153.444 29.4688 153.444 28.3139ZM162.33 28.3547C162.33 27.6618 162.194 27.0707 161.923 26.5816C161.651 26.0789 161.284 25.6985 160.822 25.4403C160.36 25.1686 159.864 25.0327 159.334 25.0327C158.804 25.0327 158.315 25.1618 157.867 25.4199C157.419 25.6781 157.052 26.0585 156.766 26.5612C156.495 27.0504 156.359 27.6346 156.359 28.3139C156.359 28.9933 156.495 29.5911 156.766 30.1074C157.052 30.6101 157.419 30.9973 157.867 31.2691C158.329 31.5408 158.818 31.6767 159.334 31.6767C159.864 31.6767 160.36 31.5476 160.822 31.2894C161.284 31.0177 161.651 30.6373 161.923 30.1481C162.194 29.6454 162.33 29.0476 162.33 28.3547ZM170.844 24.4621C171.211 23.8643 171.686 23.3955 172.27 23.0559C172.868 22.7162 173.547 22.5463 174.308 22.5463V25.5422H173.554C172.658 25.5422 171.978 25.7528 171.516 26.174C171.068 26.5952 170.844 27.3289 170.844 28.3751V34H167.99V22.7094H170.844V24.4621ZM175.496 28.3139C175.496 27.1726 175.721 26.1604 176.169 25.2773C176.631 24.3941 177.256 23.7148 178.044 23.2393C178.832 22.7637 179.708 22.526 180.673 22.526C181.407 22.526 182.106 22.689 182.772 23.0151C183.438 23.3276 183.968 23.7488 184.362 24.2787V18.9187H187.256V34H184.362V32.3288C184.009 32.8859 183.513 33.3342 182.874 33.6739C182.235 34.0136 181.495 34.1834 180.653 34.1834C179.702 34.1834 178.832 33.9389 178.044 33.4497C177.256 32.9606 176.631 32.2745 176.169 31.3913C175.721 30.4946 175.496 29.4688 175.496 28.3139ZM184.382 28.3547C184.382 27.6618 184.246 27.0707 183.975 26.5816C183.703 26.0789 183.336 25.6985 182.874 25.4403C182.412 25.1686 181.916 25.0327 181.386 25.0327C180.856 25.0327 180.367 25.1618 179.919 25.4199C179.471 25.6781 179.104 26.0585 178.818 26.5612C178.547 27.0504 178.411 27.6346 178.411 28.3139C178.411 28.9933 178.547 29.5911 178.818 30.1074C179.104 30.6101 179.471 30.9973 179.919 31.2691C180.381 31.5408 180.87 31.6767 181.386 31.6767C181.916 31.6767 182.412 31.5476 182.874 31.2894C183.336 31.0177 183.703 30.6373 183.975 30.1481C184.246 29.6454 184.382 29.0476 184.382 28.3547Z" fill="#252C58"/>
<path d="M192 36.1157V18L207.851 27.2901L192 36.1157Z" fill="#0660C3"/>
<path d="M196.832 6.96044L184 13.7011L208.909 28.3058V12.9521V0L196.832 6.96044Z" fill="url(#paint0_linear_3_1149)"/>
<defs>
<linearGradient id="paint0_linear_3_1149" x1="196.455" y1="6.96044" x2="208.773" y2="26.1465" gradientUnits="userSpaceOnUse">
<stop stop-color="#3983FA"/>
<stop offset="1" stop-color="#3C82F2"/>
</linearGradient>
</defs>
</svg>
