<?xml version="1.0" standalone="no"?>
<!DOCTYPE svg PUBLIC "-//W3C//DTD SVG 20010904//EN"
 "http://www.w3.org/TR/2001/REC-SVG-20010904/DTD/svg10.dtd">
<svg version="1.0" xmlns="http://www.w3.org/2000/svg"
 width="1120.000000pt" height="1120.000000pt" viewBox="0 0 1120.000000 1120.000000"
 preserveAspectRatio="xMidYMid meet">

<g transform="translate(0.000000,1120.000000) scale(0.100000,-0.100000)"
fill="#000000" stroke="none">
<path d="M4700 10340 c-152 -27 -297 -134 -369 -271 -19 -35 -42 -73 -51 -84
-24 -27 -60 -200 -60 -286 0 -116 35 -204 120 -303 33 -38 131 -103 183 -123
60 -21 227 -22 295 -1 58 19 113 48 107 58 -2 4 13 12 33 20 91 32 200 127
254 220 96 164 95 391 -1 543 -109 170 -314 262 -511 227z m-82 -251 c-2 -7
16 -13 42 -15 128 -12 203 -46 274 -125 63 -70 88 -142 85 -241 -3 -75 -5 -81
-38 -113 -104 -105 -275 -106 -396 -2 -102 86 -129 278 -58 408 31 58 98 123
91 88z"/>
<path d="M3380 10320 c0 -6 11 -37 24 -70 14 -33 21 -58 15 -55 -5 4 -9 3 -9
-2 0 -19 412 -828 420 -826 5 2 6 -5 3 -14 -4 -11 -3 -14 5 -9 8 5 10 1 5 -10
-4 -12 -3 -15 5 -10 8 5 10 1 5 -10 -4 -12 -3 -15 5 -10 8 5 10 2 6 -8 -3 -9
-2 -16 4 -16 11 0 87 152 318 634 79 165 157 323 173 352 17 28 27 55 24 58
-4 3 -55 6 -115 6 l-109 0 -65 -134 c-35 -74 -69 -138 -75 -141 -5 -4 -8 -13
-5 -21 3 -8 0 -14 -6 -14 -6 0 -9 -3 -5 -6 3 -4 -1 -13 -9 -21 -8 -9 -13 -22
-10 -30 3 -8 2 -12 -3 -9 -5 3 -8 -6 -8 -20 0 -15 -7 -30 -14 -35 -8 -5 -10
-9 -6 -9 5 0 1 -7 -7 -16 -14 -14 -21 -35 -17 -56 0 -5 -3 -8 -7 -8 -13 0 -32
-48 -26 -64 3 -8 1 -16 -4 -19 -8 -5 -51 84 -238 483 l-54 115 -110 3 c-72 2
-110 -1 -110 -8z"/>
<path d="M5354 10301 c-4 -17 -11 -34 -15 -37 -5 -3 -9 -112 -9 -242 -1 -147
-8 -310 -19 -429 -25 -261 -15 -313 61 -313 48 0 126 46 86 52 -7 0 10 4 37 7
l50 6 5 180 c3 99 7 170 8 157 1 -13 16 -43 32 -67 17 -24 30 -47 30 -51 0
-16 136 -211 168 -241 38 -36 81 -48 146 -41 51 6 104 37 84 49 -8 5 8 9 40 9
28 0 52 4 52 9 0 9 -80 123 -209 299 -30 40 -52 74 -50 75 2 1 26 13 52 26 92
46 147 141 154 266 9 139 -46 234 -166 288 -42 19 -68 22 -289 25 l-242 4 -6
-31z m281 -230 c84 -3 145 -29 174 -74 18 -26 27 -34 33 -25 5 9 8 8 8 -5 0
-30 -46 -64 -96 -71 -26 -3 -82 -6 -125 -6 l-79 0 0 106 c0 90 2 103 14 91 8
-8 38 -14 71 -16z"/>
<path d="M6142 10296 c-12 -20 -26 -63 -32 -97 -16 -85 -2 -105 77 -114 32 -3
81 -11 108 -18 l50 -12 2 -275 c2 -151 3 -319 3 -373 0 -97 0 -98 28 -108 42
-16 91 -13 114 8 l20 18 -28 6 c-19 4 -6 7 38 8 l68 1 2 378 3 377 61 6 c69 6
94 17 73 30 -9 6 3 9 33 9 77 0 78 1 78 99 l0 87 -339 3 -338 3 -21 -36z"/>
<path d="M6910 10258 c0 -37 -6 -87 -14 -110 -8 -24 -17 -61 -21 -83 -9 -49
-8 -695 1 -729 12 -50 37 -56 236 -56 185 0 303 11 340 31 17 9 18 13 7 20 -9
6 4 9 39 9 l52 0 0 90 0 90 -225 0 -225 0 0 38 c0 20 3 60 6 87 l6 50 113 -3
c125 -3 200 10 191 34 -4 10 3 14 28 14 64 0 66 3 66 101 l0 89 -200 0 -200 0
0 101 c0 91 1 99 16 85 32 -33 334 -20 334 14 0 4 20 11 45 14 l45 7 0 84 c0
74 -2 84 -20 90 -10 3 -154 5 -320 4 l-300 -3 0 -68z"/>
<path d="M7719 10323 c-67 -4 -67 -4 -72 -36 -13 -76 -25 -675 -18 -924 1 -14
7 -23 16 -23 8 0 14 -3 13 -7 -3 -15 14 -43 26 -43 7 0 21 7 32 15 15 12 16
16 5 24 -9 5 9 11 53 16 l66 7 0 176 c0 101 4 172 9 166 5 -5 16 -32 25 -60
27 -82 195 -297 258 -330 30 -15 138 -17 138 -2 0 4 9 8 19 8 31 0 34 18 4 23
-16 2 14 5 65 6 50 0 92 4 92 9 0 9 -207 258 -322 386 -88 98 -89 99 -70 120
36 40 372 465 372 470 0 3 -53 5 -118 5 l-118 0 -140 -171 c-76 -93 -156 -192
-176 -220 l-38 -51 0 221 0 222 -27 -2 c-16 -1 -58 -3 -94 -5z m139 -558 c-3
-3 -9 2 -12 12 -6 14 -5 15 5 6 7 -7 10 -15 7 -18z"/>
<path d="M2842 10249 c-30 -22 -42 -38 -42 -55 0 -29 29 -88 62 -125 13 -14
48 -55 78 -90 302 -349 603 -665 678 -712 59 -38 125 -43 185 -15 l49 23 -32
40 c-18 22 -43 61 -56 88 -13 26 -27 47 -30 47 -2 0 1 -10 7 -22 9 -17 9 -23
0 -26 -8 -3 -5 -13 11 -31 l23 -26 -27 24 c-15 13 -25 29 -21 34 4 6 0 8 -10
4 -25 -9 -283 259 -624 648 -72 83 -149 167 -170 188 l-39 37 -42 -31z"/>
<path d="M3336 10217 c3 -10 9 -15 12 -12 3 3 0 11 -7 18 -10 9 -11 8 -5 -6z"/>
<path d="M3360 10170 c6 -11 13 -20 16 -20 2 0 0 9 -6 20 -6 11 -13 20 -16 20
-2 0 0 -9 6 -20z"/>
<path d="M3380 10131 c0 -6 4 -13 10 -16 6 -3 7 1 4 9 -7 18 -14 21 -14 7z"/>
<path d="M3416 10067 c3 -10 9 -15 12 -12 3 3 0 11 -7 18 -10 9 -11 8 -5 -6z"/>
<path d="M3436 10027 c3 -10 9 -15 12 -12 3 3 0 11 -7 18 -10 9 -11 8 -5 -6z"/>
<path d="M3460 9984 c0 -6 7 -19 16 -30 14 -18 14 -18 3 6 -14 31 -19 36 -19
24z"/>
<path d="M3590 9730 c11 -22 23 -40 25 -40 3 0 -4 18 -15 40 -11 22 -23 40
-25 40 -3 0 4 -18 15 -40z"/>
<path d="M5459 8572 c-283 -214 -764 -570 -911 -674 l-107 -75 48 -47 c25 -25
54 -46 63 -46 16 0 371 145 431 176 25 14 33 13 80 -4 50 -19 422 -124 557
-157 l65 -16 260 71 c143 39 294 82 336 96 l77 25 178 -82 c99 -44 200 -89
226 -100 l47 -18 62 52 61 52 -28 20 c-105 75 -779 584 -964 729 -124 96 -230
176 -236 176 -6 0 -116 -80 -245 -178z"/>
<path d="M9794 8543 c-22 -26 -100 -122 -174 -213 -118 -144 -216 -270 -580
-745 -174 -227 -390 -516 -407 -545 -10 -17 -44 -47 -76 -67 -54 -33 -137
-124 -137 -151 0 -7 -4 -12 -10 -12 -16 0 -42 -60 -140 -320 -51 -134 -112
-292 -137 -350 -24 -58 -56 -134 -70 -169 -29 -72 -61 -131 -72 -131 -10 0
-37 57 -73 155 -46 124 -56 162 -47 176 14 23 149 365 149 378 0 21 -143 215
-302 411 -42 52 -85 106 -95 119 l-19 23 -57 -67 c-39 -45 -55 -71 -48 -79 5
-6 32 -96 59 -201 28 -104 76 -284 107 -400 31 -115 85 -320 121 -455 36 -135
98 -364 138 -510 40 -146 76 -275 79 -287 4 -18 -13 -38 -97 -111 -55 -49
-267 -234 -469 -411 -388 -339 -650 -560 -807 -680 -52 -40 -108 -91 -124
-114 -17 -23 -149 -202 -295 -397 -305 -408 -372 -500 -460 -627 -63 -92 -64
-92 -81 -70 -9 12 -117 164 -240 337 -123 173 -282 398 -354 500 -182 256
-191 267 -324 377 -139 116 -305 258 -422 363 -128 115 -285 250 -485 416
-383 319 -426 354 -470 386 -24 18 -44 40 -45 48 0 17 66 238 135 450 51 158
77 252 180 655 74 290 180 695 191 725 4 13 6 13 14 0 6 -8 10 -11 10 -7 0 16
-36 65 -100 132 -37 39 -79 91 -94 118 -15 26 -30 47 -33 47 -3 0 6 -20 20
-44 21 -38 23 -48 12 -68 -8 -16 -9 -32 -3 -48 5 -15 5 -27 -2 -34 -5 -5 -10
-14 -10 -19 0 -4 12 5 26 20 l26 28 -22 -33 c-12 -19 -61 -84 -109 -145 -172
-223 -251 -335 -251 -354 0 -10 28 -91 61 -179 68 -177 73 -200 53 -256 -7
-21 -9 -36 -4 -33 4 3 11 19 15 35 4 16 11 32 16 36 9 5 -12 -56 -56 -163 -9
-23 -23 -44 -31 -47 -8 -3 -14 -11 -14 -18 0 -9 3 -8 10 2 5 8 10 10 10 4 0
-18 -12 -24 -26 -14 -9 8 -12 6 -10 -7 0 -10 -5 -17 -12 -15 -15 3 -16 -13 -2
-39 6 -10 8 -19 6 -19 -10 0 -35 57 -29 64 4 3 1 6 -6 6 -8 0 -11 6 -7 16 3 8
2 13 -3 10 -8 -6 -83 174 -200 484 -151 403 -128 360 -334 616 -471 587 -996
1264 -1126 1453 -39 57 -71 100 -71 94 0 -6 18 -59 40 -118 43 -117 42 -142
-7 -107 -30 21 -94 23 -101 3 -2 -6 -8 -11 -13 -11 -17 0 -51 -42 -53 -65 0
-13 -4 -21 -7 -19 -13 8 -32 -90 -33 -171 -1 -33 -5 -63 -11 -67 -6 -5 -4 -8
5 -8 13 0 13 -1 0 -10 -10 -7 -11 -10 -2 -10 7 0 12 -12 11 -27 -1 -34 4 -58
29 -145 11 -38 17 -68 15 -68 -3 0 0 -6 6 -14 6 -7 9 -20 6 -28 -4 -9 1 -22 9
-31 8 -8 13 -24 11 -36 -2 -12 -1 -21 3 -21 7 0 12 -29 15 -82 1 -14 6 -24 11
-20 5 3 7 -4 4 -16 -4 -12 0 -23 8 -26 7 -3 11 -12 8 -21 -3 -8 -2 -15 2 -15
5 0 10 -12 11 -27 2 -37 24 -103 35 -103 4 0 8 -22 8 -49 0 -28 4 -52 8 -55 4
-2 8 -19 9 -38 0 -18 -1 -25 -4 -15 -2 9 -8 17 -13 17 -12 0 -1 -30 17 -48 16
-17 17 -36 1 -26 -8 5 -9 2 -4 -12 21 -54 50 -154 46 -162 -1 -2 7 -10 17 -19
10 -8 12 -12 5 -8 -17 8 -15 1 9 -52 11 -25 18 -51 15 -58 -3 -8 2 -19 10 -26
12 -10 12 -14 2 -20 -10 -7 -10 -9 -1 -9 7 0 16 -18 19 -40 4 -22 10 -37 15
-34 5 3 6 -2 3 -11 -4 -8 -1 -21 5 -29 6 -7 8 -16 4 -19 -3 -4 -1 -13 6 -21 7
-8 9 -25 6 -39 -5 -18 -1 -31 15 -47 17 -17 19 -24 9 -36 -9 -11 -8 -14 6 -14
13 0 16 -6 11 -26 -4 -15 -3 -23 3 -20 5 3 7 -3 4 -14 -3 -11 1 -28 8 -37 8
-9 14 -23 14 -32 0 -9 4 -22 8 -28 5 -7 5 -13 1 -13 -3 0 -1 -7 6 -15 10 -12
10 -15 -1 -16 -8 0 -5 -4 6 -9 11 -5 15 -9 9 -9 -6 -1 -9 -14 -6 -32 3 -22 7
-27 13 -18 6 9 9 -3 9 -33 0 -27 5 -48 10 -48 6 0 10 -9 10 -19 0 -11 4 -23
10 -26 5 -3 10 -11 10 -17 0 -6 -6 -6 -15 2 -13 11 -14 10 -9 -4 3 -9 10 -16
14 -16 4 0 10 -9 13 -20 3 -11 0 -20 -6 -20 -8 0 -8 -3 1 -9 7 -4 12 -14 10
-22 -2 -8 3 -13 10 -11 8 1 11 -2 6 -9 -3 -6 -1 -15 6 -19 9 -6 9 -12 1 -29
-7 -11 -8 -21 -3 -21 8 0 34 -47 34 -60 0 -3 6 -13 15 -22 8 -10 13 -24 10
-31 -3 -8 2 -25 10 -38 9 -12 11 -19 5 -15 -6 3 -13 2 -17 -4 -3 -5 -2 -10 3
-10 5 0 12 -13 15 -29 3 -16 14 -36 23 -46 15 -14 15 -18 3 -26 -11 -7 -11 -9
4 -9 19 0 24 -20 5 -20 -9 0 -9 -3 -3 -8 6 -4 18 -26 27 -49 13 -34 13 -41 2
-36 -8 3 -14 10 -14 16 0 6 -3 7 -6 4 -4 -4 -1 -13 6 -22 7 -8 10 -24 7 -35
-3 -11 -1 -18 4 -14 5 3 9 -1 10 -8 1 -29 8 -51 17 -57 5 -3 15 -23 21 -43 7
-21 16 -38 21 -38 4 0 13 -13 18 -29 8 -23 7 -32 -4 -42 -16 -13 -19 -45 -4
-54 6 -4 8 -11 4 -16 -3 -5 4 -26 16 -45 12 -22 18 -44 14 -56 -3 -10 0 -26 8
-35 9 -12 9 -15 1 -9 -7 4 -13 2 -13 -3 0 -15 27 -14 34 2 3 6 4 3 3 -8 -2
-11 -9 -19 -16 -17 -7 1 -10 -2 -6 -8 3 -5 14 -10 23 -10 13 0 13 -2 -4 -15
-10 -8 -14 -15 -7 -15 7 0 10 -6 7 -13 -2 -7 4 -22 15 -34 11 -11 17 -24 13
-27 -12 -12 -10 -35 3 -30 8 4 11 -3 9 -21 -2 -19 1 -25 11 -21 9 3 12 0 8 -9
-3 -8 -8 -13 -12 -10 -4 2 -8 -2 -8 -10 0 -8 9 -17 20 -21 18 -6 17 -7 -8 -24
-16 -11 -23 -20 -16 -24 6 -4 11 -3 11 2 0 6 7 13 16 16 10 4 13 2 7 -7 -10
-15 -11 -57 -2 -51 4 2 10 0 13 -5 4 -5 2 -12 -2 -15 -11 -7 -3 -56 9 -56 4 0
12 -15 17 -32 6 -18 13 -42 18 -52 5 -13 4 -17 -3 -13 -19 12 -8 -22 13 -38
14 -11 15 -14 4 -15 -10 0 -7 -5 8 -16 18 -12 20 -19 12 -29 -8 -10 -7 -16 7
-24 10 -6 15 -11 10 -11 -4 0 -1 -13 8 -30 8 -16 14 -32 13 -34 -2 -2 5 -13
16 -25 11 -12 16 -27 12 -38 -4 -9 -4 -14 0 -10 8 8 44 -31 44 -48 0 -7 7 -18
15 -25 9 -7 14 -18 12 -24 -2 -6 5 -17 15 -26 10 -8 21 -28 24 -44 6 -35 13
-48 22 -42 4 2 7 -10 7 -26 0 -17 6 -32 13 -34 7 -1 8 0 2 3 -5 2 -10 12 -10
21 1 34 28 -24 34 -73 1 -11 8 -20 13 -20 6 0 15 -3 19 -8 4 -4 2 -7 -5 -7 -7
0 -9 -5 -6 -10 4 -6 11 -8 16 -4 5 3 14 -8 20 -25 6 -17 15 -31 20 -31 5 0 9
-7 9 -15 0 -8 9 -20 20 -27 26 -17 25 -33 -2 -54 -16 -11 -17 -15 -5 -11 12 5
17 1 18 -11 0 -16 1 -16 7 0 7 15 8 15 27 0 11 -9 21 -28 21 -42 2 -38 3 -39
27 -32 18 5 20 3 10 -9 -8 -10 -9 -19 -1 -29 8 -12 9 -11 4 4 -6 16 -4 17 9 6
16 -13 20 -45 8 -53 -5 -2 -2 -2 5 0 14 3 62 -45 61 -62 0 -5 -3 -5 -5 2 -6
13 -34 6 -34 -9 0 -5 5 -6 10 -3 6 3 10 -1 10 -9 0 -8 12 -27 27 -42 24 -22
25 -24 5 -15 -12 7 -22 8 -22 2 0 -5 7 -12 16 -15 8 -3 12 -10 9 -16 -3 -5 -1
-10 6 -10 7 0 9 -10 7 -25 -4 -21 -1 -25 18 -25 13 0 24 -5 24 -11 0 -5 -6 -7
-12 -4 -7 4 -1 -3 14 -15 16 -12 25 -27 21 -35 -3 -8 0 -15 6 -15 6 0 23 -14
38 -30 17 -19 33 -28 42 -25 12 5 13 3 5 -5 -12 -12 -44 -4 -44 11 0 5 -4 9
-8 9 -5 0 -9 -7 -9 -15 0 -8 4 -12 9 -9 4 3 8 0 8 -6 0 -6 5 -8 10 -5 6 3 10
-1 10 -9 0 -8 9 -20 20 -26 14 -7 20 -7 20 0 0 5 4 10 9 10 5 0 4 -11 -2 -24
-8 -16 -14 -20 -19 -13 -4 6 -10 8 -15 4 -9 -9 17 -28 29 -21 9 6 57 -27 58
-39 0 -5 -6 -5 -12 -1 -9 5 -9 3 1 -9 7 -9 18 -14 24 -10 5 3 7 1 4 -5 -8 -11
32 -92 45 -92 4 0 8 -10 8 -22 0 -13 10 -34 21 -48 12 -14 19 -18 16 -9 -5 14
-2 15 19 5 22 -10 34 -28 17 -25 -21 3 -34 -2 -28 -11 4 -6 10 -8 15 -5 10 6
22 -23 14 -36 -3 -5 2 -9 10 -9 9 0 17 -4 17 -10 1 -5 2 -15 3 -22 0 -6 7 -13
15 -16 10 -3 12 0 8 11 -8 20 9 32 20 15 11 -18 13 -39 3 -33 -4 3 -14 -3 -21
-13 -12 -15 -12 -16 1 -6 18 14 65 0 55 -16 -3 -5 -8 -10 -11 -10 -3 0 -3 4 0
8 3 5 -1 9 -8 9 -16 0 -15 -22 3 -40 10 -9 12 -9 9 2 -2 7 4 16 12 19 8 2 12
1 8 -3 -4 -4 5 -17 19 -29 13 -12 26 -33 26 -48 1 -14 5 -24 10 -21 4 2 7 -2
7 -10 0 -8 7 -17 15 -21 8 -3 15 -13 15 -22 0 -10 16 -46 35 -81 19 -35 32
-63 28 -63 -3 0 1 -8 10 -18 9 -10 18 -29 19 -42 3 -26 25 -53 51 -63 19 -7
22 -27 7 -45 -7 -9 -7 -9 2 -2 14 12 48 -5 48 -25 0 -7 5 -17 12 -21 7 -5 8
-3 3 6 -5 9 -4 11 3 6 7 -4 12 -15 12 -25 0 -10 11 -24 25 -31 14 -7 23 -15
20 -18 -2 -3 -11 1 -20 8 -19 16 -20 3 -1 -15 7 -8 17 -11 21 -7 5 4 5 -1 2
-10 -4 -12 5 -29 28 -52 18 -19 31 -37 28 -40 -4 -3 -2 -6 3 -6 6 0 15 5 22
12 9 9 12 9 12 0 0 -7 -7 -15 -15 -18 -11 -5 -12 -9 -2 -19 7 -7 16 -11 21 -8
4 3 2 9 -5 14 -9 6 -10 9 -2 9 15 0 53 -48 53 -69 0 -13 2 -13 9 -2 11 17 25
-3 16 -21 -4 -7 1 -4 11 7 16 20 16 20 12 -1 -4 -16 2 -26 24 -39 19 -11 29
-24 27 -38 -2 -36 0 -47 12 -47 8 0 8 4 0 14 -9 11 -9 16 0 22 7 4 9 3 5 -4
-3 -6 -2 -13 4 -17 5 -3 10 -2 10 4 0 6 7 8 15 4 17 -6 11 -18 -7 -18 -6 0
-13 -6 -16 -13 -3 -9 4 -11 23 -8 l28 5 -24 -25 c-17 -18 -19 -23 -7 -19 10 4
24 0 34 -10 14 -13 19 -14 26 -3 6 9 7 5 3 -11 -5 -17 -4 -22 5 -16 9 5 11 4
6 -4 -4 -6 0 -18 8 -27 19 -19 20 -30 3 -37 -8 -3 -13 2 -13 12 1 9 -3 17 -9
18 -5 1 -13 12 -16 25 -5 20 -6 19 -11 -10 -4 -28 -2 -32 15 -26 13 4 17 2 13
-5 -4 -6 -14 -11 -23 -11 -20 0 -9 -48 15 -66 15 -11 17 -9 20 17 2 16 7 29
11 29 4 0 17 9 28 19 20 19 21 19 26 2 3 -15 0 -17 -17 -13 -11 3 -18 2 -14
-3 4 -4 0 -14 -8 -22 -18 -18 -10 -31 9 -15 18 15 27 5 27 -28 0 -16 6 -27 15
-28 8 -1 21 -3 28 -4 17 -2 18 -25 1 -25 -7 0 -11 4 -8 9 3 4 1 8 -5 8 -5 0
-12 -4 -15 -9 -7 -10 22 -25 42 -22 11 2 11 -2 2 -20 -10 -17 -9 -20 1 -14 9
6 10 3 5 -11 -6 -15 -5 -17 5 -6 18 17 29 15 22 -5 -6 -16 -5 -16 10 -4 13 10
17 10 17 1 0 -7 6 -10 13 -7 16 6 48 -50 50 -87 2 -24 3 -25 14 -9 9 11 13 13
13 4 0 -8 8 -20 18 -28 10 -9 11 -12 2 -7 -8 3 -4 -5 10 -19 15 -15 29 -21 35
-16 5 5 14 9 20 9 5 0 3 -5 -5 -10 -13 -8 -12 -10 3 -10 10 0 15 -5 12 -10 -4
-6 -12 -7 -18 -4 -7 4 -2 -4 11 -18 18 -19 20 -27 10 -32 -7 -3 0 -3 15 1 20
4 27 2 25 -8 -2 -8 3 -13 10 -11 8 1 11 -2 7 -7 -7 -12 29 -33 40 -23 5 4 5 2
1 -5 -8 -14 10 -27 19 -13 11 18 35 11 35 -11 0 -18 -4 -20 -29 -14 -18 4 -32
2 -37 -6 -5 -9 -2 -10 12 -5 15 6 17 5 7 -5 -7 -7 -13 -19 -13 -26 0 -21 21
-15 27 7 3 11 10 20 16 20 6 0 7 -3 4 -7 -4 -3 -2 -12 5 -20 9 -11 7 -12 -7
-7 -17 7 -17 6 -1 -19 10 -14 25 -28 34 -32 13 -5 13 -2 -3 15 -10 11 -15 20
-10 20 4 0 15 -8 24 -18 9 -10 27 -23 41 -30 14 -7 16 -10 6 -7 -19 6 -19 5
-2 -14 10 -11 23 -18 27 -15 5 3 6 -2 3 -10 -3 -9 -1 -16 6 -16 6 0 9 -4 6 -9
-3 -5 2 -15 11 -22 12 -10 14 -10 9 -1 -4 6 -2 12 3 12 6 0 11 -9 11 -19 0
-11 4 -22 8 -25 5 -3 8 8 7 24 -1 22 1 27 10 20 7 -5 15 -6 20 -2 4 4 3 -3 -4
-15 -6 -12 -11 -30 -10 -40 0 -10 3 -13 6 -5 2 6 18 12 34 12 19 0 28 -4 23
-11 -4 -7 2 -9 17 -7 16 2 23 -2 21 -10 -1 -8 2 -11 7 -8 5 4 13 1 16 -5 4 -6
18 -8 31 -5 19 5 22 3 17 -11 -5 -11 -3 -14 6 -8 8 4 17 2 22 -6 10 -18 49
-21 43 -4 -4 9 3 11 20 8 14 -3 26 -9 26 -12 0 -4 7 -8 15 -8 8 0 12 3 10 7
-2 4 21 7 51 8 39 0 52 -3 47 -11 -3 -7 2 -5 13 4 11 9 33 15 51 14 21 -2 31
1 26 8 -4 6 2 8 15 5 12 -4 25 -1 30 6 11 17 66 51 57 35 -5 -8 3 -4 16 7 13
12 35 27 48 34 14 7 35 25 49 41 13 16 29 29 36 29 6 0 26 26 43 58 18 31 50
76 70 99 87 95 212 256 309 399 38 55 102 145 143 199 41 54 75 106 76 115 1
17 7 26 98 149 226 303 246 340 47 87 -72 -92 -119 -145 -128 -141 -10 3 -12
-1 -8 -18 l6 -22 -12 23 c-8 16 -17 21 -31 16 -13 -4 -17 -2 -13 5 4 6 13 11
20 11 19 0 27 37 12 50 -7 5 -15 7 -19 4 -3 -3 -4 1 -3 10 1 9 12 26 25 37 17
16 20 24 11 29 -7 4 -10 12 -6 18 3 5 -1 15 -9 22 -18 15 -68 22 -59 9 3 -5
-1 -9 -9 -9 -8 0 -26 -15 -40 -32 -14 -18 -50 -58 -80 -89 -30 -30 -87 -93
-128 -140 -102 -117 -191 -209 -212 -221 -13 -6 -23 -5 -34 4 -19 16 -346 404
-827 983 -193 231 -383 457 -423 503 -71 80 -101 128 -88 141 4 3 11 -2 16
-11 5 -10 69 -89 142 -176 72 -87 208 -249 300 -360 97 -117 173 -199 179
-196 7 5 8 2 4 -5 -10 -15 23 -53 37 -44 5 3 7 2 4 -4 -4 -6 9 -28 29 -49 l35
-39 -23 35 c-29 44 -32 60 -13 60 27 0 30 -2 27 -14 -2 -7 1 -7 9 1 15 15 49
17 49 4 0 -4 12 -7 27 -5 15 1 34 -2 41 -9 30 -24 180 -15 242 16 34 16 84 50
88 60 2 4 8 7 13 7 10 0 19 7 91 73 25 23 46 44 45 47 -1 5 14 24 67 87 16 18
26 36 22 40 -10 10 14 32 29 27 7 -3 24 4 37 15 12 11 32 27 43 36 11 9 13 13
5 9 -8 -4 11 19 42 52 31 32 67 73 80 89 12 17 28 36 35 43 23 24 63 79 63 86
0 4 -6 4 -12 0 -9 -5 -9 -2 1 9 15 18 26 23 16 7 -3 -5 -3 -10 2 -10 4 0 16
14 25 31 10 17 12 27 5 23 -6 -4 1 7 17 24 16 17 33 29 38 26 5 -3 7 -1 6 5
-4 15 143 182 154 175 4 -3 7 -2 6 3 -5 14 64 93 75 86 6 -3 7 -2 4 3 -3 6 47
64 111 130 64 67 104 105 87 85 l-30 -36 37 34 c21 19 35 37 33 41 -7 11 110
121 120 113 4 -5 5 -3 2 3 -8 14 26 47 38 37 4 -5 5 -3 2 3 -8 14 26 47 38 37
4 -5 5 -3 2 3 -8 14 26 47 37 37 4 -5 6 -1 4 7 -2 8 3 14 9 13 7 -2 12 3 10
10 -1 6 4 11 11 9 8 -1 11 1 8 6 -3 5 13 26 34 47 22 22 40 35 40 30 0 -5 7 0
15 11 15 19 15 19 8 -1 -4 -12 9 -2 32 23 22 23 43 42 48 42 4 0 35 23 68 50
49 41 64 48 75 39 12 -10 13 -9 8 6 -5 12 -4 16 4 11 6 -4 17 2 24 14 7 11 17
20 22 20 5 0 18 8 28 17 18 16 18 16 12 -2 -5 -11 -3 -16 2 -12 14 8 15 -35 1
-52 -9 -12 -9 -13 0 -8 8 5 8 -1 -2 -19 -8 -15 -12 -31 -9 -36 3 -4 0 -8 -6
-8 -6 0 -8 -4 -5 -10 3 -5 -3 -29 -14 -52 -10 -24 -27 -61 -37 -83 -9 -22 -18
-42 -19 -45 -2 -3 -6 -15 -10 -27 -4 -13 -12 -23 -17 -23 -5 0 -6 -4 -3 -10 3
-5 1 -10 -6 -10 -7 0 -9 -3 -6 -6 4 -4 -2 -19 -12 -33 -10 -14 -24 -45 -31
-68 -7 -24 -17 -43 -22 -43 -4 0 -7 -3 -6 -7 1 -5 -22 -56 -50 -114 -29 -58
-52 -111 -52 -117 0 -7 -4 -12 -9 -12 -5 0 -12 -12 -16 -27 -10 -41 -47 -113
-58 -113 -6 0 -8 -3 -4 -6 3 -4 0 -13 -8 -21 -8 -8 -15 -25 -15 -39 0 -13 -4
-24 -8 -24 -4 0 -14 -16 -21 -36 -7 -20 -20 -44 -30 -53 -9 -9 -29 -41 -45
-71 -16 -30 -47 -78 -68 -106 -21 -28 -38 -56 -38 -62 0 -7 -6 -12 -12 -12 -7
0 -23 -18 -36 -40 -12 -22 -27 -40 -32 -40 -6 0 -10 -5 -10 -12 0 -6 -7 -18
-15 -27 -75 -83 -80 -90 -76 -113 0 -5 -5 -8 -12 -8 -12 -1 -77 -80 -74 -91 3
-8 -30 -39 -42 -39 -5 0 -12 -8 -15 -17 -4 -10 -33 -47 -67 -83 -33 -36 -60
-67 -61 -70 -3 -14 -55 -70 -64 -70 -7 0 -15 -11 -18 -24 -3 -13 -23 -42 -43
-64 -53 -57 -95 -107 -152 -179 -27 -34 -52 -59 -55 -56 -3 4 -6 -1 -6 -9 0
-9 -3 -18 -8 -20 -4 -2 -18 -16 -30 -33 -13 -16 -36 -46 -52 -65 -16 -19 -64
-78 -107 -130 -42 -52 -84 -101 -93 -107 -13 -11 -13 -14 0 -23 8 -5 18 -10
21 -10 6 0 344 367 456 495 38 44 130 152 203 240 74 88 163 194 200 235 36
41 100 118 142 170 42 52 110 136 151 187 42 50 114 139 161 197 77 97 108
119 91 66 -10 -30 6 -160 19 -160 6 0 51 56 100 123 50 67 146 199 215 292 68
94 223 307 344 475 121 168 275 379 342 470 147 199 198 275 230 339 51 101
277 661 430 1066 48 127 155 408 237 625 172 454 281 749 361 970 155 432 322
896 357 990 82 224 102 282 97 286 -3 3 -22 -17 -43 -43z m-8134 -248 c0 -5
-5 -3 -10 5 -5 8 -10 20 -10 25 0 6 5 3 10 -5 5 -8 10 -19 10 -25z m544 -3294
c3 -5 -1 -11 -9 -15 -9 -3 -15 0 -15 9 0 16 16 20 24 6z m994 -47 c28 -3 52
-9 52 -14 0 -17 -59 -40 -103 -40 -46 0 -97 29 -97 54 0 14 12 14 148 0z
m5196 -21 c-6 -35 -26 -94 -85 -247 -26 -66 -24 -69 -53 56 -19 85 -43 117
-125 171 l-65 42 94 6 c52 3 128 6 168 7 l73 2 -7 -37z m-5304 -1863 c0 -5 -4
-10 -10 -10 -5 0 -10 5 -10 10 0 6 5 10 10 10 6 0 10 -4 10 -10z m1967 -726
c-3 -3 -12 -4 -19 -1 -8 3 -5 6 6 6 11 1 17 -2 13 -5z m-1240 -376 c-3 -8 -6
-5 -6 6 -1 11 2 17 5 13 3 -3 4 -12 1 -19z m2403 8 c0 -2 -7 -9 -15 -16 -13
-11 -14 -10 -9 4 5 14 24 23 24 12z m-2334 -32 c-4 -9 -9 -15 -11 -12 -3 3 -3
13 1 22 4 9 9 15 11 12 3 -3 3 -13 -1 -22z m2359 5 c-4 -5 -12 -9 -18 -8 -9 0
-8 2 1 6 6 2 9 10 6 15 -4 7 -2 8 5 4 6 -4 9 -12 6 -17z m-5 -119 c0 -5 -5
-10 -11 -10 -5 0 -7 5 -4 10 3 6 8 10 11 10 2 0 4 -4 4 -10z m-2100 -340 c0
-5 -2 -10 -4 -10 -3 0 -8 5 -11 10 -3 6 -1 10 4 10 6 0 11 -4 11 -10z m320
-290 c0 -5 -2 -10 -4 -10 -3 0 -8 5 -11 10 -3 6 -1 10 4 10 6 0 11 -4 11 -10z
m37 -46 c-3 -3 -12 -4 -19 -1 -8 3 -5 6 6 6 11 1 17 -2 13 -5z m593 -505 c0
-5 -4 -9 -10 -9 -5 0 -10 7 -10 16 0 8 5 12 10 9 6 -3 10 -10 10 -16z"/>
<path d="M3994 7738 l-19 -23 23 19 c21 18 27 26 19 26 -2 0 -12 -10 -23 -22z"/>
<path d="M3959 7634 c-107 -85 -136 -118 -121 -137 6 -7 18 -45 26 -85 10 -49
35 -112 76 -190 72 -138 93 -168 109 -158 7 5 49 58 95 120 46 61 115 149 155
195 39 46 70 87 69 92 -4 10 -245 197 -286 221 l-29 17 -94 -75z"/>
<path d="M4175 7690 c10 -11 20 -20 23 -20 3 0 -3 9 -13 20 -10 11 -20 20 -23
20 -3 0 3 -9 13 -20z"/>
<path d="M7133 7592 c-79 -59 -143 -110 -143 -114 0 -5 51 -70 113 -145 62
-76 128 -160 147 -188 66 -96 56 -97 118 13 81 143 100 189 117 283 l15 84
-47 44 c-51 47 -161 131 -172 131 -3 0 -70 -49 -148 -108z"/>
<path d="M4210 7667 c0 -3 21 -22 47 -43 26 -21 44 -33 40 -27 -9 14 -87 77
-87 70z"/>
<path d="M3560 7393 c-33 -39 -92 -144 -86 -151 3 -2 34 19 69 47 65 51 65 51
60 94 -3 23 -7 43 -8 45 -2 2 -17 -14 -35 -35z"/>
<path d="M4957 7312 c-54 -19 -96 -36 -94 -38 2 -2 43 2 91 8 68 9 98 9 134
-1 59 -15 253 -86 446 -163 l150 -59 185 72 c102 39 246 92 320 116 130 44
138 45 225 40 l91 -6 -85 29 c-47 16 -94 29 -105 29 -26 1 -281 -59 -473 -111
l-154 -41 -221 61 c-405 111 -385 109 -510 64z"/>
<path d="M4062 6838 c-73 -118 -186 -511 -250 -870 l-19 -107 23 -42 c14 -23
69 -99 124 -170 55 -70 100 -132 100 -136 0 -5 9 -14 20 -21 12 -7 18 -17 15
-22 -3 -6 45 -89 107 -185 204 -315 468 -749 468 -768 0 -7 -172 160 -382 371
-211 211 -392 388 -403 394 -19 11 -19 11 -1 -18 38 -58 155 -205 396 -495
770 -928 899 -1085 1088 -1337 150 -198 333 -406 345 -391 2 2 74 87 158 189
85 102 200 239 255 305 55 66 169 206 254 310 132 163 289 351 696 835 147
176 444 568 444 588 0 21 -682 -686 -881 -913 -63 -71 -168 -191 -234 -265
-66 -75 -235 -266 -375 -425 -140 -159 -267 -302 -282 -319 l-27 -31 -1 185 0
185 -275 280 c-152 154 -285 294 -297 310 -11 17 109 -99 268 -257 159 -159
294 -288 299 -288 22 0 844 840 1079 1103 132 147 347 414 738 917 l38 48 -20
79 c-10 43 -40 177 -65 298 -26 121 -57 263 -70 315 -13 52 -34 140 -45 195
-12 55 -26 107 -32 115 -6 11 -7 6 -3 -15 3 -16 9 -125 12 -241 7 -251 -6
-351 -68 -539 -74 -223 -164 -380 -345 -601 -55 -66 -110 -133 -122 -150 l-23
-29 7 90 c3 50 12 119 19 155 8 36 12 66 11 68 -2 1 -27 -32 -56 -73 -84 -123
-460 -570 -460 -548 0 30 54 322 71 383 11 41 56 144 99 228 l78 152 -108 213
c-101 198 -167 344 -159 351 2 1 51 17 108 36 57 19 113 42 125 51 12 9 39 49
60 88 48 87 71 109 138 132 l53 18 -38 0 c-39 1 -83 20 -163 71 -55 35 -32 44
-255 -102 -91 -59 -171 -108 -178 -108 -6 0 -55 20 -108 45 -53 25 -102 45
-108 45 -9 0 -4 -29 16 -97 30 -102 82 -340 94 -430 10 -78 25 -75 25 4 0 103
18 297 30 329 15 37 26 44 80 44 61 0 86 -19 94 -72 23 -169 60 -779 53 -888
-5 -75 -51 -280 -89 -395 l-13 -40 -72 0 c-39 0 -69 4 -66 8 3 5 -21 6 -53 3
-35 -3 -49 -2 -34 2 20 7 10 10 -45 15 -38 4 -105 8 -147 8 -43 1 -78 5 -78 9
0 14 81 81 158 131 162 103 193 128 215 177 28 61 27 136 -4 226 -32 94 -75
124 -231 161 -131 31 -182 29 -312 -12 -107 -34 -174 -69 -190 -102 -36 -71
-58 -164 -51 -210 4 -25 8 -54 8 -63 1 -9 4 -15 7 -14 3 1 23 -18 45 -43 l39
-46 -37 34 c-23 22 -37 30 -37 20 0 -8 -9 -20 -20 -27 -16 -9 -18 -17 -11 -29
7 -13 4 -22 -11 -35 -25 -22 -35 -24 -19 -4 9 11 9 16 0 22 -8 4 -9 3 -5 -4 4
-7 2 -12 -4 -12 -8 0 -10 -10 -6 -27 4 -16 3 -23 -1 -18 -4 6 -14 11 -22 13
-12 3 -12 0 -2 -12 11 -13 9 -15 -9 -11 -13 2 -20 2 -17 -1 3 -3 1 -20 -4 -37
-9 -32 5 -111 19 -104 4 3 16 1 27 -4 16 -6 14 -8 -12 -8 -37 -1 -32 -13 -89
229 -30 130 -34 160 -34 291 0 80 11 260 24 400 14 140 27 290 31 334 11 142
7 135 79 135 34 0 70 -6 79 -12 23 -18 34 -83 49 -293 12 -168 13 -176 21
-115 13 109 55 318 91 453 19 73 29 127 23 127 -6 0 -61 -23 -123 -51 l-113
-51 -58 36 c-32 20 -113 75 -180 121 -107 74 -125 84 -147 75 -20 -7 -27 -5
-39 13 l-14 22 -72 -48 c-39 -26 -69 -52 -66 -58 4 -5 3 -9 -2 -8 -48 8 -41
-15 12 -35 52 -20 75 -46 130 -144 44 -80 40 -77 208 -127 48 -14 87 -28 87
-32 0 -11 -234 -490 -245 -501 -1 -2 -5 4 -9 13 -3 9 -2 13 4 10 13 -8 13 8 0
21 -8 8 -7 23 3 52 11 30 11 39 2 36 -7 -3 -19 2 -28 10 -8 8 -17 12 -21 9 -3
-4 -6 -1 -6 6 0 7 -14 17 -31 23 -20 7 -28 15 -25 25 4 8 -4 17 -21 24 -28 11
-54 39 -47 51 3 5 0 8 -6 8 -7 0 -10 7 -6 15 11 29 -3 15 -43 -42 -74 -106
-64 -101 -113 -59 -42 37 -152 154 -216 231 -37 45 -36 44 28 -89 18 -37 33
-81 34 -96 1 -16 4 -26 9 -23 4 2 7 -3 7 -11 0 -8 -5 -18 -12 -22 -7 -4 -8 -3
-4 4 4 7 2 12 -3 12 -6 0 -11 -4 -11 -10 0 -5 -9 -19 -21 -31 -20 -20 -21 -20
-42 -2 -11 10 -17 12 -13 6 4 -8 1 -13 -9 -13 -8 0 -18 -6 -21 -14 -3 -8 -11
-13 -18 -10 -15 6 -18 -33 -5 -58 5 -10 7 -18 4 -18 -21 0 -135 286 -156 395
-19 97 -17 449 3 575 9 52 15 96 13 98 -1 2 -12 -12 -23 -30z m887 -299 c32
-11 32 -12 11 -26 -17 -12 -19 -18 -9 -29 6 -8 9 -17 6 -20 -3 -3 -11 3 -18
15 -9 13 -17 17 -25 11 -15 -13 -48 24 -41 45 7 18 32 19 76 4z m1566 -13 c0
-30 -31 -44 -51 -24 -24 24 -11 50 23 46 20 -2 28 -9 28 -22z m-105 -21 c15
-18 6 -45 -13 -45 -21 0 -38 25 -31 44 8 20 28 21 44 1z m-1404 -116 c23 -7
19 -8 -24 -4 -65 5 -79 13 -55 30 15 11 21 11 34 -1 9 -8 30 -19 45 -25z
m1449 25 c17 -13 18 -16 5 -24 -8 -5 -29 -10 -47 -10 -17 0 -38 -3 -47 -6 -9
-3 -16 -1 -16 5 0 6 11 13 25 17 13 3 29 12 36 20 14 17 19 17 44 -2z m-2173
-536 c-7 -7 -12 -8 -12 -2 0 14 12 26 19 19 2 -3 -1 -11 -7 -17z m571 -163
c-3 -9 -8 -14 -10 -11 -3 3 -2 9 2 15 9 16 15 13 8 -4z m985 -24 c62 -16 122
-35 134 -43 21 -14 103 -196 93 -206 -3 -3 -17 7 -31 22 -15 14 -69 49 -120
76 -101 55 -246 179 -209 179 11 0 71 -12 133 -28z m-347 -69 c-21 -41 -46
-70 -91 -105 -52 -41 -61 -45 -55 -25 10 32 64 138 70 138 3 0 1 -9 -5 -21
-23 -41 1 -32 47 19 26 29 51 52 55 52 5 0 -5 -26 -21 -58z m102 -510 c60 -39
107 -86 96 -96 -2 -2 -80 -6 -174 -9 -187 -6 -201 -2 -30 9 61 4 100 10 87 13
-26 7 -30 20 -11 32 23 14 15 50 -13 57 -5 1 -8 5 -7 8 0 4 -33 27 -75 51 -42
24 -76 46 -76 48 0 7 129 -64 203 -113z m-270 -119 c-13 -2 -35 -2 -50 0 -16
2 -5 4 22 4 28 0 40 -2 28 -4z m787 -83 c-49 -62 -183 -182 -242 -218 -30 -18
-79 -41 -109 -51 l-54 -20 -3 64 -3 63 -42 7 c-51 9 -212 67 -288 106 -31 15
-59 26 -62 23 -3 -3 -15 9 -27 25 -24 34 -10 42 26 17 12 -8 57 -29 100 -46
43 -18 108 -45 144 -62 61 -29 165 -51 147 -32 -5 5 -13 9 -18 9 -5 0 -9 4 -9
10 -1 5 34 17 77 26 82 18 235 69 290 98 18 9 49 17 68 18 l36 2 -31 -39z
m-735 -87 c0 -11 6 -28 14 -39 7 -10 2 -6 -13 9 -14 16 -24 33 -20 38 3 5 0 8
-6 7 -6 -2 -19 8 -28 22 l-17 24 35 -20 c22 -13 35 -28 35 -41z"/>
<path d="M3392 6008 c-14 -14 -16 -42 -3 -34 7 5 23 46 17 46 -1 0 -7 -5 -14
-12z"/>
<path d="M2195 4780 c3 -5 8 -10 11 -10 2 0 4 5 4 10 0 6 -5 10 -11 10 -5 0
-7 -4 -4 -10z"/>
<path d="M2686 3693 c-3 -4 -6 -11 -6 -16 0 -6 3 -7 7 -4 3 4 12 2 20 -4 17
-15 17 -2 -1 16 -7 8 -16 11 -20 8z"/>
<path d="M2673 3615 c0 -8 4 -12 9 -9 5 3 6 10 3 15 -9 13 -12 11 -12 -6z"/>
<path d="M2740 3613 c0 -5 7 -18 15 -29 13 -18 14 -18 8 4 -5 22 -23 41 -23
25z"/>
<path d="M2705 3590 c-4 -6 -11 -7 -17 -4 -7 4 -8 2 -4 -5 6 -9 12 -9 24 1 10
7 19 14 21 15 2 2 -1 3 -7 3 -6 0 -14 -5 -17 -10z"/>
<path d="M2740 3545 c-7 -9 -8 -15 -2 -15 5 0 12 7 16 15 3 8 4 15 2 15 -2 0
-9 -7 -16 -15z"/>
<path d="M6589 3533 c-13 -16 -12 -17 4 -4 9 7 17 15 17 17 0 8 -8 3 -21 -13z"/>
<path d="M2852 3434 c10 -10 20 -16 22 -13 3 3 -5 11 -17 18 -21 13 -21 12 -5
-5z"/>
<path d="M2896 3268 c3 -5 10 -6 15 -3 13 9 11 12 -6 12 -8 0 -12 -4 -9 -9z"/>
<path d="M2928 3203 c7 -3 16 -2 19 1 4 3 -2 6 -13 5 -11 0 -14 -3 -6 -6z"/>
<path d="M5110 2205 c13 -14 26 -25 28 -25 3 0 -5 11 -18 25 -13 14 -26 25
-28 25 -3 0 5 -11 18 -25z"/>
<path d="M3810 1916 c0 -2 8 -10 18 -17 15 -13 16 -12 3 4 -13 16 -21 21 -21
13z"/>
<path d="M6235 1881 c-6 -11 13 -26 22 -17 4 3 1 6 -6 6 -7 0 -9 5 -6 10 3 6
4 10 1 10 -3 0 -7 -4 -11 -9z"/>
<path d="M3906 1835 c-3 -9 0 -15 9 -15 9 0 12 6 9 15 -4 8 -7 15 -9 15 -2 0
-5 -7 -9 -15z"/>
<path d="M6260 1811 c0 -10 26 -9 36 2 4 4 -2 7 -14 7 -12 0 -22 -4 -22 -9z"/>
<path d="M3973 1750 c-13 -5 -23 -12 -23 -15 0 -9 16 -5 36 10 22 16 19 18
-13 5z"/>
<path d="M3980 1670 c-9 -6 -10 -10 -3 -10 6 0 15 5 18 10 8 12 4 12 -15 0z"/>
<path d="M3990 1616 c0 -2 8 -10 18 -17 15 -13 16 -12 3 4 -13 16 -21 21 -21
13z"/>
<path d="M4195 1440 c-3 -5 -1 -10 4 -10 6 0 11 5 11 10 0 6 -2 10 -4 10 -3 0
-8 -4 -11 -10z"/>
<path d="M4207 1300 c15 -16 43 -22 43 -10 0 5 -4 12 -10 15 -5 3 -10 1 -10
-6 0 -8 -5 -8 -17 2 -15 11 -16 11 -6 -1z"/>
<path d="M4360 1274 c0 -6 7 -19 15 -30 8 -10 14 -14 14 -9 0 6 -6 19 -14 29
-8 11 -15 15 -15 10z"/>
<path d="M4260 1242 c0 -5 7 -9 15 -9 8 0 12 4 9 9 -3 4 -9 8 -15 8 -5 0 -9
-4 -9 -8z"/>
<path d="M4320 1220 c0 -5 5 -10 10 -10 6 0 10 5 10 10 0 6 -4 10 -10 10 -5 0
-10 -4 -10 -10z"/>
<path d="M4361 1114 c0 -11 3 -14 6 -6 3 7 2 16 -1 19 -3 4 -6 -2 -5 -13z"/>
<path d="M4581 983 c7 -10 14 -19 15 -21 1 -2 4 4 8 13 3 9 2 13 -4 10 -6 -3
-10 -1 -10 4 0 6 -5 11 -11 11 -8 0 -7 -6 2 -17z"/>
</g>
</svg>
