<svg width="13" height="20" viewBox="0 0 13 20" fill="none" xmlns="http://www.w3.org/2000/svg"> <path d="M10.2796 14.0715L12.8043 17.9432L11.9702 19.2226L9.44605 15.35C8.50688 16.5048 7.3387 17.1329 6.13501 17.1303C3.20653 17.1303 0.829788 13.4846 0.829788 8.99265C0.829788 4.50066 3.20653 0.85498 6.13501 0.85498C9.06349 0.85498 11.4402 4.50066 11.4402 8.99265C11.4419 10.839 11.0324 12.6309 10.2796 14.0715ZM9.09709 13.4006C9.84519 12.2205 10.263 10.6387 10.2613 8.99265C10.2613 5.49616 8.41448 2.66335 6.13501 2.66335C3.85553 2.66335 2.00873 5.49616 2.00873 8.99265C2.00873 12.4891 3.85553 15.3219 6.13501 15.3219C7.20809 15.3245 8.23934 14.6837 9.00867 13.5362L9.09709 13.4006Z" fill="grey"/> </svg>